# xmcd CD database file
#
# Track frame offsets:
#	150
#	14967
#	30147
#	46939
#	64163
#	80125
#	95836
#	112579
#	133555
#	157810
#	177575
#	197819
#	214435
#	238500
#
# Disc length: 3466 seconds
#
# Revision: 0
# Processed by: cddbd v1.5.2PL0 Copyright (c) Steve Scherf et al.
# Submitted via: CDex 1.51
#
DISCID=bf0d880e
DTITLE=Miles Davis - The Essential Collection [CD2)
DYEAR=2007
DGENRE=Jazz
TTITLE0=Kelo
TTITLE1=Enigma
TTITLE2=Ray's Idea
TTITLE3=Tempus Fugit
TTITLE4=C.T.A.
TTITLE5=I Waited for You
TTITLE6=Two Bass Hit
TTITLE7=How Am I To Know?
TTITLE8=It Never Entered My Mind
TTITLE9=When I Fal In Love
TTITLE10=Tadd's Delight
TTITLE11=Sweet Sue, Just You
TTITLE12='Round Midnight
TTITLE13=Half Nelson
EXTD=YEAR: 2007
EXTT0=
EXTT1=
EXTT2=
EXTT3=
EXTT4=
EXTT5=
EXTT6=
EXTT7=
EXTT8=
EXTT9=
EXTT10=
EXTT11=
EXTT12=
EXTT13=
PLAYORDER=
